<?xml version="1.0" encoding="utf-8"?>
<!-- Generator: Adobe Illustrator 17.0.0, SVG Export Plug-In . SVG Version: 6.00 Build 0)  -->
<!DOCTYPE svg PUBLIC "-//W3C//DTD SVG 1.1//EN" "http://www.w3.org/Graphics/SVG/1.1/DTD/svg11.dtd">
<svg version="1.1" id="Layer_1" xmlns="http://www.w3.org/2000/svg" xmlns:xlink="http://www.w3.org/1999/xlink" x="0px" y="0px"
	 width="612px" height="168.413px" viewBox="0 0 612 168.413" enable-background="new 0 0 612 168.413" xml:space="preserve">
<g>
	<path fill="#F6921E" d="M194.781,54.922c0,5.109-3.894,9.247-9.978,9.247c-5.841,0-9.735-4.138-9.612-9.247
		c-0.123-5.355,3.771-9.374,9.735-9.374C190.887,45.548,194.66,49.567,194.781,54.922z M175.678,130.969V71.469h18.494v59.501
		H175.678z"/>
	<path fill="#F6921E" d="M199.076,90.45c0-7.419-0.244-13.75-0.488-18.982h16.063l0.853,8.155h0.363
		c2.434-3.773,8.517-9.493,18.375-9.493c12.167,0,21.293,8.032,21.293,25.554v35.285h-18.496V97.994
		c0-7.667-2.674-12.895-9.368-12.895c-5.111,0-8.154,3.525-9.37,6.933c-0.486,1.093-0.731,2.922-0.731,4.624v34.313h-18.494V90.45z"
		/>
	<path fill="#F6921E" d="M260.435,90.45c0-7.419-0.242-13.75-0.484-18.982h16.059l0.853,8.155h0.365
		c2.435-3.773,8.518-9.493,18.373-9.493c12.169,0,21.295,8.032,21.295,25.554v35.285H298.4V97.994
		c0-7.667-2.676-12.895-9.368-12.895c-5.111,0-8.154,3.525-9.37,6.933c-0.488,1.093-0.731,2.922-0.731,4.624v34.313h-18.496V90.45z"
		/>
	<path fill="#F6921E" d="M336.033,107.122c0.609,7.665,8.151,11.313,16.791,11.313c6.33,0,11.439-0.853,16.424-2.435l2.435,12.534
		c-6.081,2.435-13.504,3.656-21.535,3.656c-20.197,0-31.758-11.682-31.758-30.3c0-15.09,9.368-31.76,30.057-31.76
		c19.225,0,26.525,14.969,26.525,29.69c0,3.166-0.365,5.962-0.609,7.302H336.033z M357.816,94.469c0-4.506-1.949-12.05-10.466-12.05
		c-7.786,0-10.954,7.058-11.438,12.05H357.816z"/>
	<path fill="#F6921E" d="M376.101,91.061c0-8.765-0.242-14.483-0.492-19.592h15.944l0.61,10.95h0.484
		c3.039-8.638,10.347-12.288,16.063-12.288c1.703,0,2.554,0,3.892,0.242v17.401c-1.338-0.242-2.922-0.488-4.985-0.488
		c-6.816,0-11.44,3.652-12.659,9.37c-0.242,1.215-0.365,2.677-0.365,4.138v30.175h-18.494V91.061z"/>
	<path fill="#6D6F6E" d="M414.949,48.956h5.722V126.1h36.627v4.869h-42.348V48.956z"/>
	<path fill="#6D6F6E" d="M466.944,50.924c0,2.677-1.824,4.988-4.865,4.988c-2.68,0-4.504-2.312-4.504-4.988
		c0-2.676,2.07-5.107,4.747-5.107C465.12,45.817,466.944,48.125,466.944,50.924z M459.398,130.969V72.565h5.722v58.404H459.398z"/>
	<path fill="#6D6F6E" d="M474.889,86.555c0-5.353-0.242-9.37-0.488-13.99h5.357l0.484,10.585h0.246
		c3.16-6.572,10.464-11.923,20.076-11.923c5.595,0,20.322,2.796,20.322,24.698v35.045h-5.718V96.412
		c0-10.585-4.136-20.197-16.186-20.197c-8.275,0-15.211,5.839-17.519,13.383c-0.492,1.463-0.853,3.408-0.853,5.234v36.137h-5.722
		V86.555z"/>
	<path fill="#6D6F6E" d="M531.02,101.158c0,18.736,10.218,26.04,22.268,26.04c8.518,0,12.895-1.705,16.178-3.287l1.463,4.623
		c-2.193,1.221-8.149,3.775-18.371,3.775c-16.793,0-27.257-12.292-27.257-29.446c0-19.471,11.19-31.637,26.282-31.637
		c19.104,0,22.752,18.008,22.752,26.403c0,1.58,0,2.556-0.242,3.529H531.02z M568.253,96.533
		c0.123-8.151-3.287-20.564-17.403-20.564c-12.891,0-18.49,11.562-19.465,20.564H568.253z"/>
	<path fill="#6D6F6E" d="M576.805,123.304c3.164,1.943,7.91,4.017,13.141,4.017c9.247,0,13.628-4.992,13.628-11.075
		c0-6.451-3.898-9.853-12.292-13.26c-9.612-3.654-14.842-8.886-14.842-15.944c0-8.397,6.567-15.816,18.01-15.816
		c5.353,0,9.85,1.58,12.895,3.65l-2.312,4.747c-1.951-1.461-5.718-3.531-11.562-3.531c-7.419,0-11.313,4.746-11.313,10.102
		c0,6.084,4.136,8.761,12.046,12.046c9.493,3.65,15.088,8.393,15.088,17.277c0,9.977-7.784,16.793-19.711,16.793
		c-5.721,0-10.952-1.705-14.849-4.136L576.805,123.304z"/>
	<g>
		<path fill="#F6921E" d="M95.052,36.054c-11.034-1.352-16.067,15.203-16.067,15.203s-5.207-14.212-20.612-17.082
			c-15.426-2.867-19.861,11.814-15.504,20.754c4.353,8.919,34.446,25.009,27.774,37.871c0,0,1.106-0.54,2.988-1.607
			c4.823-10.409-17.641-23.459-20.905-30.694c-3.287-7.242,0.036-19.139,11.593-16.795c11.547,2.335,15.46,13.884,15.46,13.884
			s3.753-13.419,12.027-12.306c8.274,1.116,19.07,12.087,8.197,24.788c-7.653,8.959-17.599,15.792-22.829,19.077
			c7.306-4.36,19.346-12.361,28.783-22.537C120.485,50.93,106.087,37.422,95.052,36.054z"/>
		<path fill="#F69023" d="M84.655,74.165c0,2.947-2.412,5.336-5.353,5.336c-2.944,0-5.336-2.388-5.336-5.336
			c0-2.959,2.392-5.347,5.336-5.347C82.243,68.817,84.655,71.205,84.655,74.165z"/>
		<g>
			<path fill="#F6921E" d="M167.017,89.722c0,0,0.035-8.187-5.128-11.929c-5.169-3.746-11.148-7.294-11.148-7.294l1.004,12.666
				L167.017,89.722z"/>
			<path fill="#F6921E" d="M137.954,92.025c0,0-1.329-8.08,3.17-12.586c4.482-4.514,9.827-8.959,9.827-8.959l1.004,12.67
				L137.954,92.025z"/>
		</g>
		<path fill="#F6921E" d="M78.831,5.849c-42.529,0-76.999,34.471-76.999,76.992c0,42.521,34.471,77.002,76.999,77.002
			c14.137,0,27.37-3.836,38.768-10.495c-7.819,2.492-15.134,4.001-21.961,4.754c-19.03,2.066-34.306-1.893-46.118-7.865
			c-16.829-8.529-26.566-21.128-30.01-26.197c-0.363-0.568-0.759-1.121-1.114-1.713c-0.096-0.169-0.196-0.33-0.302-0.522
			C12.018,107.418,8.52,95.348,8.52,82.442c0-38.747,31.406-70.143,70.145-70.143c38.731,0,70.137,31.396,70.137,70.143
			c0,5.378-0.62,10.597-1.776,15.639c-0.15,0.582-0.317,1.148-0.493,1.734c-0.292,0.991-0.603,1.863-0.885,2.696
			c-0.273,0.727-0.52,1.463-0.822,2.169c-0.088,0.204-0.167,0.442-0.282,0.645c-0.15,0.386-0.319,0.755-0.476,1.072
			c-6,12.499-17.58,20.99-30.849,20.99c-7.563,0-14.569-2.784-20.312-7.477c-0.105-0.077-0.194-0.154-0.299-0.254
			c-1.6-1.336-3.092-2.826-4.48-4.427c-4.894-6.275-7.288-15.015-8.385-20.485c-0.008-0.004-0.008-0.013-0.008-0.013
			c-0.574-2.613-8.852,3.602-8.852,3.602v2.755v5.821l-0.036,0.012c0,0,1.018,18.837-11.766,16.384c0,0-3.721,2.542,4.168,4.147
			c0.265,0.057,0.513,0.073,0.753,0.092c1.261,0.177,2.471,0.107,3.585-0.215c5.257-1.444,8.78-7.757,9.481-15.721
			c7.446,13.621,20.867,22.733,36.151,22.733c5.802,0,11.315-1.321,16.351-3.686c1.856-0.86,3.642-1.874,5.353-3.022
			c1.546-1.041,3.014-2.224,4.43-3.483c6.595-5.822,11.65-13.744,14.247-22.925c0.945-3.346,1.555-6.847,1.82-10.468
			c0.267-2.598,0.407-5.232,0.407-7.914C155.825,40.32,121.343,5.849,78.831,5.849z"/>
	</g>
	<g>
		<path fill="#F6921E" d="M472.977,72.531c0,0,0.442-5.948-3.13-8.927c-3.544-2.991-7.711-5.864-7.711-5.864l0.088,9.247
			L472.977,72.531z"/>
		<path fill="#F6921E" d="M451.741,72.715c0,0-0.549-5.933,2.953-8.976c3.495-3.051,7.577-6.002,7.577-6.002l0.096,9.257
			L451.741,72.715z"/>
	</g>
	<g>
		<path fill="#6D6F6E" d="M422.27,146.744l-5.804-11.113h1.855l4.777,9.358l4.881-9.358h1.83l-5.858,11.113v5.583h-1.68V146.744z"/>
		<path fill="#6D6F6E" d="M442.025,146.218c0,3.429-2.976,6.409-6.409,6.409c-3.556,0-6.484-2.907-6.484-6.382
			c0-3.633,2.88-6.559,6.484-6.559C439.122,139.686,442.025,142.639,442.025,146.218z M430.711,146.218
			c0,2.749,2.204,4.981,4.905,4.981c2.7,0,4.831-2.254,4.831-5.107c0-2.727-2.204-4.985-4.831-4.985
			C432.89,141.107,430.711,143.392,430.711,146.218z"/>
		<path fill="#6D6F6E" d="M455.247,152.327h-1.505v-1.908c-0.799,1.482-2.173,2.208-4.155,2.208c-3.276,0-5.154-2.131-5.154-5.833
			v-6.808h1.578v6.808c0,2.749,1.429,4.405,3.825,4.405c2.304,0,3.832-1.751,3.832-4.405v-6.808h1.578V152.327z"/>
		<path fill="#6D6F6E" d="M458.503,139.986h1.574v1.774c0.776-1.425,1.709-1.947,3.629-2.073v1.674
			c-1.075,0.1-1.571,0.276-2.25,0.853c-0.956,0.775-1.275,1.551-1.275,2.93v7.185h-1.678V139.986z"/>
		<path fill="#6D6F6E" d="M474.401,137.129h-3.828v-1.498h9.335v1.498h-3.828v15.199h-1.678V137.129z"/>
		<path fill="#6D6F6E" d="M480.883,139.986h1.574v1.774c0.775-1.425,1.709-1.947,3.637-2.073v1.674
			c-1.083,0.1-1.578,0.276-2.254,0.853c-0.952,0.775-1.279,1.551-1.279,2.93v7.185h-1.678V139.986z"/>
		<path fill="#6D6F6E" d="M498.682,152.327h-1.501v-1.908c-0.799,1.482-2.173,2.208-4.151,2.208c-3.283,0-5.157-2.131-5.157-5.833
			v-6.808h1.574v6.808c0,2.749,1.429,4.405,3.828,4.405c2.308,0,3.832-1.751,3.832-4.405v-6.808h1.574V152.327z"/>
		<path fill="#6D6F6E" d="M502.818,146.744c0.131,2.45,2.304,4.454,4.831,4.454c1.778,0,3.629-1.256,4.282-2.907h1.732
			c-0.879,2.53-3.383,4.335-6.014,4.335c-3.602,0-6.482-2.853-6.482-6.459c0-3.606,2.857-6.482,6.436-6.482
			c2.35,0,4.528,1.325,5.653,3.429c0.526,0.979,0.729,1.897,0.779,3.629H502.818z M512.353,145.315
			c-0.599-2.554-2.45-4.209-4.704-4.209c-2.373,0-4.351,1.732-4.781,4.209H512.353z"/>
		<path fill="#6D6F6E" d="M530.083,147.42c0,1.651-0.15,2.377-0.626,3.176c-0.776,1.275-2.201,2.031-3.878,2.031
			c-2.454,0-4.332-1.778-4.432-4.259h1.628c0.123,1.574,1.348,2.753,2.853,2.753c1.275,0,2.254-0.676,2.604-1.828
			c0.123-0.422,0.177-0.948,0.177-1.874v-11.789h1.674V147.42z"/>
		<path fill="#6D6F6E" d="M545.455,146.218c0,3.429-2.976,6.409-6.405,6.409c-3.552,0-6.482-2.907-6.482-6.382
			c0-3.633,2.876-6.559,6.482-6.559C542.551,139.686,545.455,142.639,545.455,146.218z M534.145,146.218
			c0,2.749,2.197,4.981,4.904,4.981c2.7,0,4.827-2.254,4.827-5.107c0-2.727-2.204-4.985-4.827-4.985
			C536.319,141.107,534.145,143.392,534.145,146.218z"/>
		<path fill="#6D6F6E" d="M558.676,152.327h-1.502v-1.908c-0.799,1.482-2.177,2.208-4.155,2.208c-3.279,0-5.157-2.131-5.157-5.833
			v-6.808h1.578v6.808c0,2.749,1.425,4.405,3.829,4.405c2.304,0,3.828-1.751,3.828-4.405v-6.808h1.578V152.327z"/>
		<path fill="#6D6F6E" d="M561.936,139.986h1.574v1.774c0.775-1.425,1.701-1.947,3.629-2.073v1.674
			c-1.079,0.1-1.578,0.276-2.25,0.853c-0.952,0.775-1.279,1.551-1.279,2.93v7.185h-1.674V139.986z"/>
		<path fill="#6D6F6E" d="M568.948,139.986h1.574v1.601c1.229-1.352,2.327-1.901,3.802-1.901c3.306,0,5.46,2.3,5.46,5.856v6.786
			h-1.578v-6.786c0-2.653-1.555-4.435-3.852-4.435c-1.229,0-2.427,0.63-3.13,1.655c-0.449,0.63-0.599,1.379-0.599,2.78v6.786h-1.678
			V139.986z"/>
		<path fill="#6D6F6E" d="M583.867,146.744c0.127,2.45,2.308,4.454,4.831,4.454c1.782,0,3.629-1.256,4.282-2.907h1.728
			c-0.876,2.53-3.379,4.335-6.01,4.335c-3.602,0-6.482-2.853-6.482-6.459c0-3.606,2.853-6.482,6.432-6.482
			c2.354,0,4.532,1.325,5.661,3.429c0.526,0.979,0.726,1.897,0.776,3.629H583.867z M593.41,145.315
			c-0.603-2.554-2.458-4.209-4.712-4.209c-2.377,0-4.351,1.732-4.781,4.209H593.41z"/>
		<path fill="#6D6F6E" d="M600.314,151.928l-4.808-11.943h1.832l3.906,9.838l4.205-9.838h1.774l-7.154,16.67h-1.755L600.314,151.928
			z"/>
	</g>
</g>
</svg>
