<?xml version="1.0" encoding="utf-8"?>
<!-- Generator: Adobe Illustrator 17.0.0, SVG Export Plug-In . SVG Version: 6.00 Build 0)  -->
<!DOCTYPE svg PUBLIC "-//W3C//DTD SVG 1.1//EN" "http://www.w3.org/Graphics/SVG/1.1/DTD/svg11.dtd">
<svg version="1.1" id="Layer_1" xmlns="http://www.w3.org/2000/svg" xmlns:xlink="http://www.w3.org/1999/xlink" x="0px" y="0px"
	 width="612px" height="168.413px" viewBox="0 0 612 168.413" enable-background="new 0 0 612 168.413" xml:space="preserve">
<path fill="#F7941E" d="M177.957,52.782c-4.829-3.002-10.718,3.598-10.718,3.598s0.634-7.713-5.901-12.348
	c-6.536-4.638-11.751,1.218-11.646,6.297c0.105,5.079,10.619,19.001,4.759,23.539c0,0,0.632-0.02,1.728-0.108
	c4.476-3.795-3.146-14.668-3.11-18.726c0.035-4.064,4.127-8.874,8.983-5.309c4.856,3.565,4.198,9.762,4.198,9.762
	s4.622-5.423,8.219-3.127c3.599,2.293,6.252,9.699-1.518,13.262c-5.466,2.508-11.552,3.548-14.687,3.947
	c4.326-0.454,11.632-1.579,18.19-4.279C186.563,65.135,182.783,55.782,177.957,52.782z"/>
<path fill="#F7941E" d="M82.786,33.877c-9.543-1.179-13.895,13.132-13.895,13.132S64.39,34.722,51.068,32.247
	C37.746,29.77,33.901,42.459,37.666,50.178c3.767,7.722,29.787,21.623,24.015,32.746c0,0,0.957-0.478,2.575-1.392
	c4.175-9-15.242-20.276-18.067-26.531c-2.83-6.262,0.034-16.547,10.019-14.524c9.982,2.024,13.372,12.001,13.372,12.001
	s3.244-11.604,10.393-10.634c7.151,0.964,16.481,10.446,7.085,21.429c-6.607,7.732-15.209,13.647-19.739,16.484
	c6.317-3.768,16.732-10.679,24.88-19.478C104.765,46.726,92.322,35.053,82.786,33.877z"/>
<g>
	<path fill="#F7941E" d="M50.469,105.34c1.572-1.317,3.031-2.761,4.414-4.269c0.685-0.76,1.361-1.528,1.996-2.329
		c0.327-0.393,0.642-0.795,0.942-1.208c0.3-0.413,0.624-0.808,0.904-1.236l0.86-1.265l0.802-1.301
		c0.276-0.428,0.516-0.877,0.754-1.327c0.232-0.452,0.501-0.887,0.703-1.353l0.632-1.386c0.213-0.461,0.362-0.947,0.546-1.419
		c0.18-0.474,0.358-0.948,0.477-1.44l0.407-1.46l0.277-0.995l0.4,0.955c1.682,4.015,3.896,7.852,6.514,11.331
		c2.627,3.468,5.736,6.608,9.402,8.867c3.649,2.266,7.883,3.512,12.137,3.395c2.124-0.037,4.22-0.496,6.362-0.986
		c2.098-0.491,4.194-1.112,6.211-1.878c2.023-0.761,3.99-1.656,5.866-2.707c1.865-1.067,3.634-2.291,5.262-3.673
		c3.286-2.742,5.887-6.218,7.778-10.037c0.914-1.929,1.659-3.937,2.256-5.993c0.535-2.074,1.014-4.171,1.253-6.313
		c0.574-4.269,0.545-8.619,0.235-12.943c-0.314-4.305-0.978-8.692-1.84-12.861l-0.795-3.208c-0.311-1.026-0.671-2.006-1-3.011
		c-0.758-1.98-1.589-3.977-2.624-5.853c-2.007-3.791-4.503-7.324-7.354-10.55c-2.863-3.22-6.113-6.09-9.579-8.656
		c-6.929-5.161-14.897-8.874-23.202-11.214c-4.167-1.14-8.437-1.872-12.73-2.237c-1.076-0.059-2.148-0.187-3.225-0.203l-3.231-0.049
		c-2.15,0.086-4.305,0.148-6.438,0.442c-4.263,0.528-8.503,1.402-12.542,2.879c-4.042,1.454-7.914,3.357-11.545,5.657
		c-1.75,1.245-3.551,2.424-5.166,3.85l-1.244,1.026c-0.366,0.278-0.793,0.727-1.187,1.082c-0.797,0.756-1.619,1.505-2.396,2.268
		c-3.017,3.029-5.83,6.37-8.29,9.91c-4.956,7.077-8.382,15.2-9.963,23.689c-1.591,8.486-1.458,17.306,0.34,25.798
		c1.779,8.482,5.034,16.734,9.906,23.909c5.03,7.06,11.499,13.153,18.968,17.643c0.946,0.539,1.851,1.155,2.831,1.632l2.923,1.469
		c0.981,0.475,2.008,0.852,3.01,1.283l1.514,0.625l1.554,0.517c4.114,1.49,8.43,2.35,12.762,2.984
		c8.704,1.084,17.585,0.68,26.265-0.838c-8.622,1.812-17.532,2.5-26.355,1.59c-4.391-0.534-8.789-1.301-13.009-2.713l-1.595-0.488
		l-1.556-0.598c-1.031-0.414-2.088-0.774-3.1-1.235l-3.02-1.427c-1.013-0.465-1.953-1.069-2.934-1.598
		c-3.857-2.224-7.519-4.828-10.792-7.863c-0.857-0.713-1.63-1.532-2.427-2.321c-0.797-0.792-1.602-1.581-2.307-2.418
		c-1.455-1.622-2.981-3.354-4.231-5.199c-5.148-7.352-8.607-15.763-10.574-24.486c-1.959-8.724-2.316-17.875-0.686-26.73
		c1.602-8.852,5.143-17.357,10.264-24.745c2.553-3.707,5.415-7.15,8.607-10.38c0.791-0.784,1.596-1.524,2.394-2.288
		c0.422-0.385,0.749-0.746,1.249-1.15l1.3-1.084c1.69-1.502,3.573-2.756,5.41-4.071c3.806-2.44,7.872-4.462,12.117-6.011
		c4.242-1.572,8.689-2.515,13.157-3.09c8.963-1.175,18.097-0.214,26.756,2.148c8.635,2.477,16.891,6.375,24.088,11.787
		c3.599,2.692,6.976,5.704,9.958,9.09c2.97,3.392,5.576,7.116,7.673,11.124c4.381,8.046,5.694,17.145,6.43,25.998
		c0.304,4.462,0.235,8.977-0.42,13.442c-0.284,2.237-0.817,4.443-1.417,6.623c-0.663,2.168-1.485,4.289-2.49,6.33
		c-2.072,4.045-4.922,7.73-8.456,10.592c-1.752,1.444-3.642,2.709-5.619,3.801c-1.987,1.075-4.055,1.979-6.168,2.739
		c-2.115,0.766-4.264,1.37-6.464,1.851c-2.152,0.459-4.399,0.92-6.694,0.928c-2.283,0.02-4.571-0.3-6.751-0.961
		c-2.18-0.667-4.242-1.667-6.135-2.896c-3.795-2.468-6.911-5.788-9.51-9.393c-2.592-3.627-4.728-7.539-6.352-11.692l0.677-0.04
		l-0.454,1.492c-0.136,0.503-0.328,0.984-0.524,1.465c-0.2,0.478-0.365,0.971-0.593,1.436l-0.678,1.396
		c-0.218,0.469-0.5,0.904-0.747,1.358c-0.253,0.451-0.507,0.9-0.797,1.327c-0.543,0.878-1.142,1.717-1.757,2.544
		c-0.296,0.422-0.636,0.81-0.951,1.216c-0.316,0.406-0.646,0.801-0.987,1.185c-0.665,0.785-1.368,1.535-2.08,2.275
		C53.591,102.675,52.082,104.074,50.469,105.34z"/>
</g>
<circle fill="#F79123" cx="68.647" cy="63.559" r="4.619"/>
<g>
	<path fill="#F7941E" d="M138.64,74.336c0,0,0.462-5.422-2.769-8.176c-3.23-2.758-7.015-5.422-7.015-5.422v8.453L138.64,74.336z"/>
	<path fill="#F7941E" d="M119.256,74.336c0,0-0.459-5.422,2.756-8.176c3.216-2.758,6.982-5.422,6.982-5.422v8.453L119.256,74.336z"
		/>
</g>
<g>
	<path fill="#6E6F6F" d="M334.481,140.854l-8.684,12.072l-1.631,8.683h-2.218l1.663-8.653l-3.879-12.102h2.371l2.031,6.928
		c0.41,1.356,0.698,2.494,0.863,3.419h0.062c0.41-0.678,1.149-1.858,2.216-3.541l4.619-6.806H334.481z"/>
	<path fill="#6E6F6F" d="M348.182,152.524c0,2.381-0.728,4.507-2.186,6.375c-1.559,2.031-3.509,3.048-5.85,3.048
		c-1.704,0-3.069-0.585-4.096-1.755c-0.965-1.108-1.446-2.535-1.446-4.28c0-2.422,0.708-4.568,2.124-6.435
		c1.58-2.033,3.541-3.049,5.882-3.049c1.744,0,3.13,0.585,4.156,1.756C347.71,149.291,348.182,150.739,348.182,152.524z
		 M345.873,152.485c0-1.197-0.287-2.188-0.862-2.971c-0.616-0.887-1.508-1.331-2.679-1.331c-1.642,0-3.007,0.887-4.096,2.661
		c-0.923,1.547-1.385,3.208-1.385,4.983c0,1.197,0.287,2.198,0.862,3.002c0.657,0.908,1.561,1.362,2.711,1.362
		c1.6,0,2.945-0.919,4.032-2.754C345.401,155.848,345.873,154.197,345.873,152.485z"/>
	<path fill="#6E6F6F" d="M367.12,146.736l-2.033,10.562c-0.266,1.457-0.472,2.894-0.615,4.311h-2.033l0.4-2.833h-0.062
		c-1.397,2.114-3.12,3.171-5.174,3.171c-2.565,0-3.849-1.416-3.849-4.249c0-0.657,0.093-1.467,0.278-2.433l1.631-8.529h2.218
		l-1.633,8.438c-0.164,0.904-0.245,1.642-0.245,2.216c0,1.767,0.81,2.649,2.431,2.649c1.006,0,2.003-0.504,2.987-1.51
		c1.027-1.088,1.693-2.412,2.001-3.972l1.478-7.821H367.12z"/>
	<path fill="#6E6F6F" d="M381.315,146.457l-0.43,2.156c-0.185,0-0.412,0-0.678,0c-1.046,0-2.027,0.597-2.941,1.786
		c-0.913,1.191-1.525,2.66-1.831,4.404l-1.294,6.805h-2.216l1.848-9.731c0.247-1.312,0.492-3.027,0.738-5.142h1.971
		c-0.083,0.698-0.226,1.776-0.432,3.234h0.093c1.128-2.36,2.616-3.542,4.464-3.542C380.894,146.427,381.13,146.438,381.315,146.457z
		"/>
	<path fill="#6E6F6F" d="M408.381,140.854l-0.401,1.941h-6.004l-3.572,18.813h-2.216l3.571-18.813h-6.003l0.368-1.941H408.381z"/>
	<path fill="#6E6F6F" d="M417.895,146.457l-0.43,2.156c-0.185,0-0.412,0-0.678,0c-1.046,0-2.027,0.597-2.941,1.786
		c-0.913,1.191-1.525,2.66-1.831,4.404l-1.294,6.805h-2.216l1.848-9.731c0.246-1.312,0.492-3.027,0.738-5.142h1.971
		c-0.083,0.698-0.226,1.776-0.431,3.234h0.093c1.128-2.36,2.616-3.542,4.464-3.542C417.474,146.427,417.71,146.438,417.895,146.457z
		"/>
	<path fill="#6E6F6F" d="M434.985,146.736l-2.033,10.562c-0.266,1.457-0.472,2.894-0.615,4.311h-2.033l0.4-2.833h-0.062
		c-1.397,2.114-3.12,3.171-5.174,3.171c-2.565,0-3.849-1.416-3.849-4.249c0-0.657,0.093-1.467,0.278-2.433l1.631-8.529h2.218
		l-1.633,8.438c-0.164,0.904-0.245,1.642-0.245,2.216c0,1.767,0.81,2.649,2.431,2.649c1.006,0,2.003-0.504,2.988-1.51
		c1.027-1.088,1.693-2.412,2.001-3.972l1.478-7.821H434.985z"/>
	<path fill="#6E6F6F" d="M451.981,150.091c0,3.306-3.254,4.907-9.761,4.804c-0.227,1.048-0.144,2.075,0.246,3.079
		c0.574,1.416,1.682,2.124,3.326,2.124c1.374,0,2.667-0.338,3.879-1.015l0.37,1.693c-1.335,0.759-2.905,1.14-4.712,1.14
		c-1.806,0-3.181-0.585-4.126-1.756c-0.861-1.025-1.293-2.401-1.293-4.126c0-2.36,0.738-4.515,2.216-6.467
		c1.582-2.093,3.481-3.141,5.697-3.141c1.314,0,2.35,0.359,3.111,1.078C451.632,148.183,451.981,149.045,451.981,150.091z
		 M449.795,150.111c0-1.286-0.759-1.928-2.279-1.928c-1.21,0-2.299,0.54-3.263,1.621c-0.822,0.94-1.418,2.051-1.786,3.336h0.43
		C447.496,153.161,449.795,152.151,449.795,150.111z"/>
	<path fill="#6E6F6F" d="M476.152,140.854l-2.741,14.473c-0.451,2.36-1.191,4.055-2.216,5.08c-1.027,1.027-2.464,1.54-4.31,1.54
		c-1.293,0-2.279-0.174-2.956-0.523l0.492-1.909c0.698,0.289,1.55,0.432,2.556,0.432c1.15,0,2.043-0.349,2.679-1.046
		c0.719-0.759,1.242-2.033,1.57-3.819l2.711-14.226H476.152z"/>
	<path fill="#6E6F6F" d="M493.486,152.524c0,2.381-0.728,4.507-2.186,6.375c-1.559,2.031-3.509,3.048-5.85,3.048
		c-1.704,0-3.069-0.585-4.096-1.755c-0.965-1.108-1.446-2.535-1.446-4.28c0-2.422,0.708-4.568,2.124-6.435
		c1.58-2.033,3.541-3.049,5.882-3.049c1.744,0,3.13,0.585,4.156,1.756C493.014,149.291,493.486,150.739,493.486,152.524z
		 M491.177,152.485c0-1.197-0.287-2.188-0.862-2.971c-0.616-0.887-1.508-1.331-2.679-1.331c-1.642,0-3.007,0.887-4.095,2.661
		c-0.923,1.547-1.385,3.208-1.385,4.983c0,1.197,0.287,2.198,0.862,3.002c0.657,0.908,1.561,1.362,2.711,1.362
		c1.6,0,2.945-0.919,4.032-2.754C490.705,155.848,491.177,154.197,491.177,152.485z"/>
	<path fill="#6E6F6F" d="M512.424,146.736l-2.033,10.562c-0.266,1.457-0.472,2.894-0.615,4.311h-2.033l0.4-2.833h-0.062
		c-1.397,2.114-3.12,3.171-5.174,3.171c-2.565,0-3.849-1.416-3.849-4.249c0-0.657,0.093-1.467,0.278-2.433l1.631-8.529h2.218
		l-1.633,8.438c-0.164,0.904-0.245,1.642-0.245,2.216c0,1.767,0.81,2.649,2.431,2.649c1.006,0,2.003-0.504,2.987-1.51
		c1.027-1.088,1.693-2.412,2.001-3.972l1.478-7.821H512.424z"/>
	<path fill="#6E6F6F" d="M526.619,146.457l-0.43,2.156c-0.185,0-0.412,0-0.678,0c-1.046,0-2.027,0.597-2.941,1.786
		c-0.913,1.191-1.524,2.66-1.831,4.404l-1.294,6.805h-2.216l1.848-9.731c0.247-1.312,0.492-3.027,0.738-5.142h1.971
		c-0.083,0.698-0.226,1.776-0.432,3.234h0.093c1.128-2.36,2.616-3.542,4.464-3.542C526.198,146.427,526.434,146.438,526.619,146.457
		z"/>
	<path fill="#6E6F6F" d="M543.216,150.461c0,0.657-0.093,1.458-0.278,2.403l-1.663,8.744h-2.216l1.663-8.714
		c0.143-0.738,0.215-1.395,0.215-1.971c0-1.765-0.8-2.648-2.401-2.648c-1.027,0-2.043,0.534-3.049,1.601
		c-1.129,1.15-1.848,2.597-2.155,4.342l-1.386,7.39h-2.218l2.003-10.562c0.266-1.395,0.492-2.833,0.677-4.311h2.001l-0.368,2.956
		h0.062c1.374-2.176,3.19-3.264,5.45-3.264c0.985,0,1.806,0.289,2.463,0.863C542.814,148.009,543.216,149.066,543.216,150.461z"/>
	<path fill="#6E6F6F" d="M560.983,150.091c0,3.306-3.253,4.907-9.761,4.804c-0.227,1.048-0.144,2.075,0.247,3.079
		c0.574,1.416,1.682,2.124,3.326,2.124c1.374,0,2.667-0.338,3.879-1.015l0.37,1.693c-1.335,0.759-2.905,1.14-4.712,1.14
		c-1.806,0-3.181-0.585-4.126-1.756c-0.861-1.025-1.293-2.401-1.293-4.126c0-2.36,0.738-4.515,2.216-6.467
		c1.582-2.093,3.481-3.141,5.697-3.141c1.314,0,2.35,0.359,3.111,1.078C560.634,148.183,560.983,149.045,560.983,150.091z
		 M558.797,150.111c0-1.286-0.759-1.928-2.279-1.928c-1.21,0-2.299,0.54-3.263,1.621c-0.822,0.94-1.418,2.051-1.786,3.336h0.43
		C556.498,153.161,558.797,152.151,558.797,150.111z"/>
	<path fill="#6E6F6F" d="M578.625,146.736l-5.603,11.455c-1.724,3.53-3.387,6.106-4.989,7.728c-1.355,1.335-2.73,2.167-4.127,2.494
		l-0.585-1.91c1.089-0.389,2.003-0.882,2.741-1.478c1.17-0.944,2.135-2.135,2.894-3.571c0.123-0.185,0.155-0.41,0.093-0.678
		l-2.864-14.041h2.279l1.508,8.283c0.164,0.925,0.389,2.248,0.678,3.972c0.475-1.149,1.013-2.38,1.613-3.694l3.972-8.561H578.625z"
		/>
</g>
<path fill="#F7911E" d="M154.266,82.736c-0.099,0.86-5.661,7.701-16.687,20.52c-11.027,12.82-16.539,21.001-16.539,24.539
	c0,1.915,1.121,2.87,3.366,2.87c3.122,0,6.536-1.625,10.246-4.879c4.392-3.923,7.414-6.219,9.075-6.889l1.171,1.579
	c-0.098,2.296-3.051,5.095-8.855,8.395c-5.807,3.3-10.026,4.951-12.661,4.951c-4.002,0-6.001-2.01-6.001-6.027
	c0-3.921,2.781-9.806,8.343-17.651c0.682-0.955,4.926-6.457,12.735-16.502c3.707-4.685,5.804-7.268,6.294-7.748
	c2.829-2.87,5.708-4.306,8.636-4.306L154.266,82.736z M167.765,64.678c0,1.12-0.487,2.139-1.458,3.058
	c-0.973,0.923-1.997,1.383-3.069,1.383c-1.544,0-2.314-0.824-2.314-2.467c0-1.052,0.468-1.989,1.408-2.812
	c0.939-0.822,1.979-1.234,3.12-1.234C166.993,62.606,167.765,63.298,167.765,64.678z"/>
<path fill="#F7911E" d="M205.347,85.032c0,3.924-4.757,11.171-14.271,21.739c-9.513,10.573-14.271,17.486-14.271,20.736
	c0,2.105,1.12,3.157,3.366,3.157c2.829,0,6.294-1.529,10.392-4.592c3.122-2.391,6.243-4.783,9.367-7.176l1.025,1.436
	c-0.391,2.488-3.392,5.334-9.001,8.538c-5.613,3.205-9.832,4.807-12.661,4.807c-4.197,0-6.294-2.296-6.294-6.887
	c0-4.592,2.488-9.995,7.465-16.215c1.56-1.912,6.196-6.839,13.905-14.781c5.073-5.07,7.612-8.611,7.612-10.619
	c0-1.242-0.783-1.864-2.342-1.864c-4.684,0-11.417,4.318-20.199,12.95c-2.44,2.4-9.758,10.46-21.955,24.178
	c-7.71,8.731-12.686,13.144-14.93,13.24l-1.025-1.006v-0.577c0-0.383,5.416-7.723,16.247-22.02
	c11.904-15.736,18.246-24.178,19.028-25.329h-9.222l-1.317-0.861c0.195-1.625,1.073-2.439,2.635-2.439h12.88l1.317,1.292
	c-0.391,1.627-5.075,8.132-14.052,19.515c7.026-6.791,11.806-11.24,14.344-13.345c6.927-5.644,12.538-8.466,16.832-8.466
	C203.639,80.44,205.347,81.971,205.347,85.032z"/>
<path fill="#F7911E" d="M261.113,85.032c0,3.924-4.757,11.171-14.271,21.739c-9.513,10.573-14.271,17.486-14.271,20.736
	c0,2.105,1.12,3.157,3.366,3.157c2.829,0,6.294-1.529,10.392-4.592c3.122-2.391,6.243-4.783,9.368-7.176l1.025,1.436
	c-0.391,2.488-3.392,5.334-9.001,8.538c-5.613,3.205-9.832,4.807-12.661,4.807c-4.197,0-6.294-2.296-6.294-6.887
	c0-4.592,2.488-9.995,7.465-16.215c1.56-1.912,6.196-6.839,13.905-14.781c5.073-5.07,7.612-8.611,7.612-10.619
	c0-1.242-0.783-1.864-2.342-1.864c-4.684,0-11.417,4.318-20.199,12.95c-2.44,2.4-9.758,10.46-21.955,24.178
	c-7.71,8.731-12.686,13.144-14.93,13.24l-1.025-1.006v-0.577c0-0.383,5.416-7.723,16.247-22.02
	c11.904-15.736,18.246-24.178,19.028-25.329h-9.222l-1.317-0.861c0.195-1.625,1.073-2.439,2.635-2.439h12.88l1.317,1.292
	c-0.391,1.627-5.075,8.132-14.052,19.515c7.026-6.791,11.806-11.24,14.344-13.345c6.927-5.644,12.538-8.466,16.832-8.466
	C259.405,80.44,261.113,81.971,261.113,85.032z"/>
<path fill="#F7911E" d="M311.756,85.032c0,5.933-5.074,11.145-15.222,15.641c-7.709,3.445-15.467,5.549-23.273,6.315
	c-6.147,8.609-9.221,14.973-9.221,19.085c0,3.156,2.195,4.735,6.587,4.735c4.487,0,9.221-1.385,14.198-4.162
	c2.438-1.338,6.536-4.16,12.295-8.466l1.025,1.579c-0.391,2.966-4.441,6.124-12.149,9.471c-6.929,3.063-12.247,4.593-15.954,4.593
	c-7.515,0-11.271-3.157-11.271-9.472c0-8.129,5.636-17.507,16.906-28.126c11.27-10.618,21.052-15.928,29.347-15.928
	C309.51,80.296,311.756,81.875,311.756,85.032z M306.194,86.179c0-1.816-1.27-2.726-3.806-2.726
	c-6.147,0-15.076,6.794-26.786,20.377c6.83-1.242,12.929-3.061,18.296-5.453C302.096,94.839,306.194,90.773,306.194,86.179z"/>
<path fill="#F7911E" d="M359.033,79.436c-0.391,1.434-1.879,3.063-4.464,4.879c-2.586,1.818-3.879,3.73-3.879,5.739
	c0,1.915,0.513,3.039,1.537,3.372c1.025,0.337,2.073,0.646,3.147,0.934c0,1.434-1.024,2.151-3.073,2.151
	c-1.855,0-3.44-0.645-4.757-1.936c-1.317-1.292-2.075-2.846-2.269-4.664c-15.127,10.906-26.982,21.668-35.567,32.288
	c-3.318,4.114-5.221,6.409-5.708,6.887c-2.832,2.966-5.27,4.449-7.318,4.449l-1.171-1.579c0.78-1.723,2.243-3.969,4.391-6.745
	c1.756-2.103,3.513-4.162,5.269-6.17c5.855-7.557,14.538-18.989,26.053-34.296h-5.122c-2.831,0.096-4.683-0.095-5.561-0.574
	c-0.099-1.816,0.878-2.726,2.927-2.726h12.148c1.072,0,1.706,0.43,1.903,1.292c-1.368,2.966-3.856,6.697-7.465,11.192
	c-5.27,6.411-8.149,9.952-8.636,10.619c2.828-2.391,6.879-5.453,12.148-9.183c5.855-4.208,9.902-7.223,12.148-9.041
	c0.389-0.287,1.756-2.153,4.099-5.596c1.171-1.627,3.514-2.44,7.026-2.44L359.033,79.436z"/>
<path fill="#6E6F6F" d="M476.393,38.252c0,10.524-8.05,20.329-24.151,29.416c-13.662,7.847-26.639,12.341-38.933,13.489
	c-7.319,11.862-13.71,20.807-19.174,26.834c-7.612,8.419-16.444,14.973-26.493,19.658c10.927,1.436,19.661,2.153,26.2,2.153
	c11.709,0,20.733-1.912,27.078-5.74l0.585,1.006c-0.098,2.869-4.781,5.214-14.05,7.03c-6.734,1.242-12.784,1.866-18.15,1.866
	c-3.805,0-9.514-0.48-17.125-1.434c-7.612-0.956-13.37-1.436-17.272-1.436c-2.049,0-5.122,0.337-9.221,1.004
	c-4.099,0.669-7.223,1.004-9.368,1.004c-8.393,0-13.954-1.672-16.686-5.022l1.025-1.436c3.512-0.477,7.268-0.717,11.27-0.717
	c3.317,0,8.245,0.241,14.782,0.717c6.537,0.481,11.466,0.719,14.784,0.719c6.244,0,14.587-6.265,25.029-18.798
	c6.733-8.036,13.174-17.171,19.321-27.409c-8.295-0.574-15.127-2.391-20.493-5.453c-6.93-3.825-10.392-9.374-10.392-16.647
	c0-4.877,1.952-9.326,5.856-13.345c3.512-3.634,7.805-6.264,12.88-7.892l1.756,1.436c-1.661,2.009-4.076,3.899-7.245,5.668
	c-3.172,1.771-5.295,3.324-6.367,4.664c-1.756,2.201-2.634,5.548-2.634,10.043c0,6.315,3.366,11.099,10.099,14.349
	c5.073,2.49,11.27,3.828,18.589,4.019c20.491-32.334,39.616-48.501,57.376-48.501C472.684,29.499,476.393,32.417,476.393,38.252z
	 M472.149,38.577c0-4.043-2.147-6.065-6.439-6.065c-15.516,0-32.202,15.164-50.059,45.488c10.246-0.962,21.759-5.294,34.543-12.998
	C464.831,56.243,472.149,47.433,472.149,38.577z"/>
<path fill="#6E6F6F" d="M465.999,82.736c-0.098,0.86-5.659,7.701-16.686,20.52c-11.028,12.82-16.54,21.001-16.54,24.539
	c0,1.915,1.122,2.87,3.368,2.87c3.121,0,6.536-1.625,10.245-4.879c4.392-3.923,7.415-6.219,9.075-6.889l1.171,1.579
	c-0.099,2.296-3.051,5.095-8.855,8.395c-5.807,3.3-10.027,4.951-12.661,4.951c-4.002,0-6-2.01-6-6.027
	c0-3.921,2.78-9.806,8.343-17.651c0.681-0.955,4.925-6.457,12.733-16.502c3.708-4.685,5.805-7.268,6.294-7.748
	c2.83-2.87,5.709-4.306,8.636-4.306L465.999,82.736z M482.978,62.215c0,1.628-0.708,3.111-2.121,4.449
	c-1.416,1.341-2.905,2.01-4.465,2.01c-2.245,0-3.366-1.197-3.366-3.589c0-1.529,0.682-2.891,2.049-4.089
	c1.365-1.195,2.878-1.794,4.538-1.794C481.855,59.202,482.978,60.206,482.978,62.215z"/>
<path fill="#6E6F6F" d="M517.081,85.032c0,3.924-4.757,11.171-14.271,21.739c-9.514,10.573-14.271,17.486-14.271,20.736
	c0,2.105,1.122,3.157,3.366,3.157c2.83,0,6.295-1.529,10.392-4.592c3.123-2.391,6.244-4.783,9.368-7.176l1.024,1.436
	c-0.391,2.488-3.39,5.334-9.001,8.538c-5.613,3.205-9.831,4.807-12.661,4.807c-4.196,0-6.294-2.296-6.294-6.887
	c0-4.592,2.488-9.995,7.465-16.215c1.561-1.912,6.196-6.839,13.906-14.781c5.071-5.07,7.611-8.611,7.611-10.619
	c0-1.242-0.782-1.864-2.342-1.864c-4.683,0-11.416,4.318-20.198,12.95c-2.44,2.4-9.759,10.46-21.956,24.178
	c-7.71,8.731-12.686,13.144-14.93,13.24l-1.024-1.006v-0.577c0-0.383,5.416-7.723,16.247-22.02
	c11.903-15.736,18.245-24.178,19.027-25.329h-9.221L478,83.884c0.194-1.625,1.072-2.439,2.634-2.439h12.88l1.318,1.292
	c-0.392,1.627-5.076,8.132-14.052,19.515c7.026-6.791,11.805-11.24,14.343-13.345c6.928-5.644,12.538-8.466,16.833-8.466
	C515.373,80.44,517.081,81.971,517.081,85.032z"/>
<path fill="#6E6F6F" d="M567.724,85.032c0,5.933-5.076,11.145-15.223,15.641c-7.71,3.445-15.466,5.549-23.273,6.315
	c-6.148,8.609-9.221,14.973-9.221,19.085c0,3.156,2.195,4.735,6.587,4.735c4.487,0,9.221-1.385,14.198-4.162
	c2.437-1.338,6.536-4.16,12.294-8.466l1.025,1.579c-0.391,2.966-4.441,6.124-12.148,9.471c-6.93,3.063-12.247,4.593-15.955,4.593
	c-7.514,0-11.27-3.157-11.27-9.472c0-8.129,5.635-17.507,16.905-28.126c11.272-10.618,21.052-15.928,29.348-15.928
	C565.478,80.296,567.724,81.875,567.724,85.032z M562.161,86.179c0-1.816-1.269-2.726-3.805-2.726
	c-6.148,0-15.076,6.794-26.785,20.377c6.829-1.242,12.929-3.061,18.296-5.453C558.063,94.839,562.161,90.773,562.161,86.179z"/>
<path fill="#6E6F6F" d="M611.781,76.279c0,1.627-3.711,5.118-11.124,10.475c-2.049,6.888-4.099,13.728-6.148,20.521
	c-2.831,8.322-6.148,14.542-9.953,18.654c-5.074,5.453-11.515,8.179-19.32,8.179c-3.905,0-7.197-1.052-9.881-3.156
	c-2.685-2.103-4.025-5.023-4.025-8.753c0-2.965,0.901-5.763,2.708-8.395c1.804-2.63,4.121-3.945,6.952-3.945
	c2.342,0,3.514,1.004,3.514,3.013c0,1.245-2.539,4.354-7.612,9.328c-0.195,1.054-0.292,1.722-0.292,2.009
	c0,2.201,0.926,3.924,2.78,5.166c1.854,1.244,3.953,1.866,6.295,1.866c5.464,0,10.293-2.535,14.489-7.606
	c3.024-3.73,5.903-9.231,8.636-16.502c1.952-5.357,3.902-10.762,5.855-16.215c-5.465,3.828-11.855,7.941-19.174,12.341l-1.61-1.292
	c0.487-1.912,8-7.078,22.542-15.498c1.756-4.112,3.169-6.791,4.245-8.036c1.95-2.389,4.586-3.586,7.904-3.586
	C610.706,74.844,611.781,75.323,611.781,76.279z"/>
<g>
	<path fill="#F7941E" d="M472.137,88.794c0,0,3.99-4.59,2.888-9.204c-1.098-4.617-2.756-9.514-2.756-9.514l-5.572,7.627
		L472.137,88.794z"/>
	<path fill="#F7941E" d="M454.642,76.019c0,0,3.162-5.195,7.877-5.561c4.718-0.37,9.873-0.292,9.873-0.292l-5.57,7.629
		L454.642,76.019z"/>
</g>
</svg>
